<svg width="14" height="14" viewBox="0 0 14 14" fill="none" xmlns="http://www.w3.org/2000/svg">
<g clip-path="url(#clip0_1_707)">
<path d="M9.97905 0.322266H4.01702C2.07663 0.322266 0.498047 1.95177 0.498047 3.95475V10.1092C0.498047 12.1121 2.07663 13.7416 4.01702 13.7416H9.97915C11.9194 13.7416 13.498 12.1121 13.498 10.1092V3.95475C13.498 1.95177 11.9194 0.322266 9.97905 0.322266V0.322266ZM12.7359 10.1092C12.7359 11.6783 11.4992 12.9549 9.97905 12.9549H4.01702C2.49686 12.9549 1.26016 11.6783 1.26016 10.1092V3.95475C1.26016 2.38556 2.49686 1.10896 4.01702 1.10896H9.97915C11.4992 1.10896 12.7359 2.38556 12.7359 3.95475V10.1092Z" fill="#1A202C"/>
<path d="M6.99794 3.3623C5.03791 3.3623 3.44336 5.00829 3.44336 7.03155C3.44336 9.0548 5.03791 10.7008 6.99794 10.7008C8.95797 10.7008 10.5525 9.0548 10.5525 7.03155C10.5525 5.00829 8.95797 3.3623 6.99794 3.3623ZM6.99794 9.91409C5.45824 9.91409 4.20547 8.62102 4.20547 7.03155C4.20547 5.44218 5.45824 4.149 6.99794 4.149C8.53774 4.149 9.79041 5.44218 9.79041 7.03155C9.79041 8.62102 8.53774 9.91409 6.99794 9.91409Z" fill="#1A202C"/>
<path d="M10.6382 2.05957C10.059 2.05957 9.58789 2.54598 9.58789 3.14379C9.58789 3.74169 10.059 4.22811 10.6382 4.22811C11.2174 4.22811 11.6887 3.74169 11.6887 3.14379C11.6887 2.54588 11.2174 2.05957 10.6382 2.05957ZM10.6382 3.44131C10.4793 3.44131 10.35 3.3078 10.35 3.14379C10.35 2.97967 10.4793 2.84627 10.6382 2.84627C10.7972 2.84627 10.9265 2.97967 10.9265 3.14379C10.9265 3.3078 10.7972 3.44131 10.6382 3.44131Z" fill="#1A202C"/>
</g>
<defs>
<clipPath id="clip0_1_707">
<rect width="13" height="13.4193" fill="white" transform="translate(0.498047 0.322266)"/>
</clipPath>
</defs>
</svg>
