<svg width="12" height="12" viewBox="0 0 12 12" fill="none" xmlns="http://www.w3.org/2000/svg">
<g clip-path="url(#clip0_1_721)">
<path d="M11.4951 11.7089V11.7085H11.4979V7.54408C11.4979 5.50683 11.073 3.9375 8.76576 3.9375C7.65659 3.9375 6.91226 4.5658 6.60838 5.16146H6.5763V4.12769H4.38867V11.7085H6.66659V7.95474C6.66659 6.9664 6.84809 6.0107 8.0338 6.0107C9.20209 6.0107 9.21951 7.13862 9.21951 8.01814V11.7089H11.4951Z" fill="#1A202C"/>
<path d="M0.679688 4.12891H2.96035V11.7097H0.679688V4.12891Z" fill="#1A202C"/>
<path d="M1.81896 0.354492C1.08976 0.354492 0.498047 0.965287 0.498047 1.71802C0.498047 2.47075 1.08976 3.09432 1.81896 3.09432C2.54817 3.09432 3.13988 2.47075 3.13988 1.71802C3.13942 0.965287 2.54771 0.354492 1.81896 0.354492V0.354492Z" fill="#1A202C"/>
</g>
<defs>
<clipPath id="clip0_1_721">
<rect width="11" height="11.3548" fill="white" transform="translate(0.498047 0.354492)"/>
</clipPath>
</defs>
</svg>
