<svg width="59" height="62" viewBox="0 0 59 62" fill="none" xmlns="http://www.w3.org/2000/svg">
<path d="M26.0353 21.2151C25.774 21.2016 25.5153 21.2607 25.2854 21.3843H24.9122L25.091 21.5097C24.9322 21.6309 24.7992 21.7838 24.6994 21.9584C24.5658 22.1924 24.4959 22.4581 24.4954 22.7276V22.7285V39.2716V39.2725C24.4959 39.542 24.5658 39.8077 24.6994 40.0417C24.8332 40.2758 25.0267 40.4708 25.2621 40.603C25.4977 40.7353 25.7651 40.7989 26.0353 40.785C26.3054 40.771 26.5648 40.6803 26.7859 40.5251L38.5763 32.2564C38.7777 32.1154 38.9402 31.9261 39.0516 31.7072C39.163 31.4884 39.2206 31.2456 39.2206 31C39.2206 30.7545 39.163 30.5117 39.0516 30.2929C38.9402 30.074 38.7777 29.8847 38.5763 29.7437L28.0802 22.3843H28.0811L26.7859 21.475C26.5648 21.3198 26.3054 21.2291 26.0353 21.2151ZM29.8288 55.9276C16.7813 55.9276 6.16211 44.7918 6.16211 31C6.16211 17.2083 16.7813 6.07251 29.8288 6.07251C42.8762 6.07251 53.4954 17.2083 53.4954 31C53.4954 44.7918 42.8762 55.9276 29.8288 55.9276Z" fill="#013EF8" stroke="white"/>
</svg>
