<svg width="14" height="12" viewBox="0 0 14 12" fill="none" xmlns="http://www.w3.org/2000/svg">
<path d="M13.498 1.90308C13.0146 2.12198 12.4995 2.26708 11.9624 2.33753C12.5149 1.99701 12.9366 1.46192 13.1349 0.81695C12.6197 1.13398 12.051 1.35792 11.4449 1.48288C10.9557 0.945272 10.2586 0.612305 9.49811 0.612305C8.02261 0.612305 6.83473 1.84856 6.83473 3.36411C6.83473 3.58217 6.85261 3.79185 6.89648 3.99146C4.6808 3.87991 2.72023 2.78372 1.40317 1.11385C1.17323 1.52566 1.03836 1.99701 1.03836 2.50443C1.03836 3.45721 1.51367 4.30178 2.22217 4.79075C1.79398 4.78237 1.37392 4.65404 1.01805 4.45191C1.01805 4.4603 1.01805 4.4712 1.01805 4.48211C1.01805 5.81901 1.94186 6.92946 3.1533 7.18527C2.93636 7.24649 2.69992 7.27585 2.45455 7.27585C2.28392 7.27585 2.11167 7.26578 1.94998 7.22888C2.2953 8.31836 3.27517 9.11933 4.4403 9.14533C3.53355 9.87752 2.38223 10.3187 1.13586 10.3187C0.917297 10.3187 0.707672 10.3086 0.498047 10.2809C1.67861 11.0668 3.07773 11.5155 4.58655 11.5155C9.4908 11.5155 12.172 7.32198 12.172 3.68701C12.172 3.5654 12.168 3.44798 12.1623 3.3314C12.6912 2.94392 13.1357 2.45998 13.498 1.90308Z" fill="#1A202C"/>
</svg>
